<svg width="88" height="88" viewBox="0 0 88 88" fill="none" xmlns="http://www.w3.org/2000/svg">
<path d="M84.1784 6.09297H71.3703V1.39627C71.3703 0.624972 70.7453 0 69.974 0H17.5258C16.7547 0 16.1296 0.624972 16.1296 1.39627V6.09297H3.32146C1.48992 6.09297 0 7.5827 0 9.41424V70.7021C0 72.5337 1.48992 74.0236 3.32146 74.0236H33.8174V84.7073H20.6479C19.8768 84.7073 19.2516 85.3323 19.2516 86.1036C19.2516 86.8749 19.8768 87.4999 20.6479 87.4999H60.6705C61.4418 87.4999 62.0668 86.8749 62.0668 86.1036C62.0668 85.3323 61.4418 84.7073 60.6705 84.7073H53.6825V74.0236H59.429C60.2003 74.0236 60.8252 73.3986 60.8252 72.6273C60.8252 71.856 60.2003 71.231 59.429 71.231H3.32146C3.03476 71.231 2.79255 70.9888 2.79255 70.7021V9.41424C2.79255 9.12754 3.03476 8.88533 3.32146 8.88533H16.1296V59.8704H7.17182C6.40071 59.8704 5.77555 60.4954 5.77555 61.2667C5.77555 62.038 6.40071 62.6629 7.17182 62.6629H59.4292C60.2005 62.6629 60.8254 62.038 60.8254 61.2667C60.8254 60.4954 60.2005 59.8704 59.4292 59.8704H48.4667V48.4589C48.4667 47.6876 47.8418 47.0626 47.0705 47.0626H24.9726C24.2015 47.0626 23.5764 47.6876 23.5764 48.4589V59.8704H18.9221V7.49092C18.9221 7.4872 18.9221 2.79255 18.9221 2.79255H68.5779V15.5152C68.5779 16.2865 69.2029 16.9115 69.9742 16.9115C70.7455 16.9115 71.3705 16.2865 71.3705 15.5152V8.88552H84.1786C84.4653 8.88552 84.7075 9.12772 84.7075 9.41443V70.7023C84.7075 70.989 84.4653 71.2312 84.1786 71.2312H80.5185C79.7472 71.2312 79.1222 71.8562 79.1222 72.6275C79.1222 73.3988 79.7472 74.0238 80.5185 74.0238H84.1784C86.0099 74.0238 87.4999 72.5338 87.4999 70.7023V9.41424C87.4999 7.5827 86.0099 6.09297 84.1784 6.09297ZM50.8901 84.7073H36.6099V74.0236H50.8901V84.7073ZM26.3689 49.8554H45.6742V59.8706H26.3689V49.8554Z" fill="#183344"/>
<path d="M76.3122 33.2433C76.3092 33.2232 76.3069 33.2029 76.303 33.183C76.2973 33.1538 76.2896 33.1253 76.282 33.0966C76.2781 33.0821 76.2751 33.0674 76.2708 33.0529C76.2619 33.0231 76.2513 32.9942 76.2405 32.9654C76.2364 32.9546 76.2334 32.9434 76.2291 32.9328L76.2222 32.9155C76.2209 32.9125 76.2198 32.9095 76.2187 32.9065L71.2697 20.58C71.0571 20.0509 70.5444 19.7041 69.974 19.7041C69.4036 19.7041 68.8909 20.0509 68.6783 20.58L63.7286 32.9076C63.7263 32.913 63.7185 32.9326 63.7185 32.9326C63.7139 32.9443 63.7105 32.9566 63.706 32.9685C63.6958 32.9963 63.6854 33.024 63.677 33.0525C63.6725 33.0674 63.6694 33.0826 63.6655 33.0977C63.658 33.126 63.6504 33.1539 63.6448 33.183C63.6409 33.2031 63.6386 33.2234 63.6355 33.2437C63.6318 33.2679 63.6275 33.2915 63.625 33.3161C63.6206 33.3615 63.6182 33.4071 63.6182 33.4529V81.1441C63.6182 84.6487 66.4694 87.5001 69.9742 87.5001C73.4787 87.5001 76.33 84.6489 76.33 81.1441V33.4529C76.33 33.4071 76.3276 33.3615 76.3231 33.3161C76.3203 33.2913 76.3159 33.2675 76.3122 33.2433ZM66.4105 34.849H73.5371V74.724H66.4105V34.849ZM69.9738 24.8478L72.8682 32.0567H67.0794L69.9738 24.8478ZM69.9738 84.7074C68.009 84.7074 66.4103 83.1087 66.4103 81.1439V77.5166H73.5371V81.1439C73.5371 83.1087 71.9387 84.7074 69.9738 84.7074Z" fill="#183344"/>
<path d="M24.9729 20.0684H62.5277C63.299 20.0684 63.924 19.4434 63.924 18.6721V8.8433C63.924 8.07199 63.299 7.44702 62.5277 7.44702H24.9729C24.2018 7.44702 23.5767 8.07199 23.5767 8.8433V18.6721C23.5767 19.4434 24.2018 20.0684 24.9729 20.0684ZM26.3692 10.2396H61.1314V17.2759H26.3692V10.2396Z" fill="#183344"/>
<path d="M62.5275 22.8608H24.9729C24.2018 22.8608 23.5767 23.4858 23.5767 24.2571C23.5767 25.0284 24.2018 25.6534 24.9729 25.6534H62.5277C63.299 25.6534 63.924 25.0284 63.924 24.2571C63.924 23.4858 63.2988 22.8608 62.5275 22.8608Z" fill="#183344"/>
<path d="M47.0707 30.3076H24.9729C24.2018 30.3076 23.5767 30.9326 23.5767 31.7039C23.5767 32.4752 24.2018 33.1002 24.9729 33.1002H47.0707C47.842 33.1002 48.467 32.4752 48.467 31.7039C48.467 30.9326 47.842 30.3076 47.0707 30.3076Z" fill="#183344"/>
<path d="M59.6985 30.3076H52.656C51.8847 30.3076 51.2598 30.9326 51.2598 31.7039C51.2598 32.4752 51.8847 33.1002 52.656 33.1002H59.6985C60.4698 33.1002 61.0948 32.4752 61.0948 31.7039C61.0948 30.9326 60.4698 30.3076 59.6985 30.3076Z" fill="#183344"/>
<path d="M47.0707 35.8923H24.9729C24.2018 35.8923 23.5767 36.5173 23.5767 37.2886C23.5767 38.0599 24.2018 38.6849 24.9729 38.6849H47.0707C47.842 38.6849 48.467 38.0599 48.467 37.2886C48.467 36.5173 47.842 35.8923 47.0707 35.8923Z" fill="#183344"/>
<path d="M59.4296 35.8923H52.656C51.8847 35.8923 51.2598 36.5173 51.2598 37.2886C51.2598 38.0599 51.8847 38.6849 52.656 38.6849H59.4296C60.2009 38.6849 60.8259 38.0599 60.8259 37.2886C60.8259 36.5173 60.2008 35.8923 59.4296 35.8923Z" fill="#183344"/>
<path d="M47.0707 41.4778H24.9729C24.2018 41.4778 23.5767 42.1028 23.5767 42.8741C23.5767 43.6454 24.2018 44.2703 24.9729 44.2703H47.0707C47.842 44.2703 48.467 43.6454 48.467 42.8741C48.467 42.1028 47.842 41.4778 47.0707 41.4778Z" fill="#183344"/>
<path d="M59.4296 41.4778H52.656C51.8847 41.4778 51.2598 42.1028 51.2598 42.8741C51.2598 43.6454 51.8847 44.2703 52.656 44.2703H59.4296C60.2009 44.2703 60.8259 43.6454 60.8259 42.8741C60.8259 42.1028 60.2008 41.4778 59.4296 41.4778Z" fill="#183344"/>
</svg>
