<svg width="88" height="88" viewBox="0 0 88 88" fill="none" xmlns="http://www.w3.org/2000/svg">
<path d="M75.4768 64.1668C75.94 61.7081 75.9281 59.1835 75.4418 56.7294L82.121 40.6105C82.1217 40.5998 82.1217 40.5891 82.121 40.5784C83.2033 37.6152 84.7895 34.8612 86.8095 32.438C87.3121 31.9072 87.5143 31.1592 87.3476 30.4474L84.6089 18.6204C84.5763 18.4968 84.5272 18.3781 84.463 18.2675C84.4514 18.2456 84.447 18.2194 84.4353 18.199C84.4237 18.1785 84.3726 18.129 84.3435 18.091C84.2838 18.0037 84.2148 17.923 84.1378 17.8504C84.0871 17.8147 84.034 17.7826 83.9789 17.7542C83.9078 17.7018 83.8321 17.656 83.7528 17.6171C83.6429 17.5756 83.5283 17.5477 83.4116 17.534C83.378 17.534 83.3489 17.5121 83.3153 17.5092C83.0358 17.4905 82.7569 17.5528 82.5118 17.6885C82.4899 17.7002 82.4637 17.7046 82.4418 17.7177H82.4272L72.13 24.1446C71.5064 24.5307 71.1193 25.2051 71.1004 25.9383C70.8144 29.087 69.9849 32.1624 68.649 35.028V35.0441L65.3109 43.113C63.6725 42.242 61.9185 41.6086 60.1017 41.2317C60.7894 36.4848 61.0423 31.685 60.8571 26.892C63.5718 23.6349 64.8747 19.4293 64.4767 15.2079C63.5652 6.70882 55.8843 0.570734 55.5561 0.31261C55.063 -0.0757526 54.3766 -0.10496 53.8522 0.240102C53.3279 0.585164 53.0831 1.22706 53.2447 1.83364C53.9957 4.65404 53.3453 7.63048 47.7978 13.7511C45.3054 16.1577 44.5154 19.8324 45.7985 23.0508C46.2891 24.2818 46.9919 25.4171 47.8751 26.405C47.5222 28.6581 47.2451 30.7916 47.0541 32.8697C46.7251 36.3069 46.6404 39.763 46.8004 43.2121C45.4994 43.9175 44.2814 44.7662 43.1691 45.7423L36.0962 15.4967C36.0962 15.4661 36.0671 15.4442 36.0583 15.4165C36.0346 15.3192 36.0004 15.2249 35.9562 15.135L28.7317 1.79281C28.0087 0.457383 26.4813 -0.228853 25.0027 0.117443C23.5241 0.46374 22.4603 1.75687 22.4055 3.27447L21.8572 18.4338C21.8575 18.5432 21.8697 18.6522 21.8936 18.759C21.8936 18.7823 21.8936 18.8027 21.8936 18.8246L29.1094 49.62C27.9711 49.6703 26.8411 49.8389 25.7378 50.1231L17.8001 30.9535C17.1636 29.4881 15.4754 28.7966 13.9939 29.3945L1.86208 34.417C0.377313 35.0368 -0.328292 36.7392 0.282715 38.2276L11.0481 64.1974C4.73863 64.5287 -0.158905 69.8252 0.00394594 76.1412C0.166797 82.4572 5.33078 87.4943 11.6489 87.5H75.8152C79.9832 87.4396 83.8025 85.1601 85.8342 81.5202C87.8659 77.8803 87.8014 73.433 85.665 69.8536C83.5286 66.2742 79.6449 64.1064 75.4768 64.1668ZM73.9908 26.4195L80.1041 22.6046L77.94 27.8312C77.6315 28.5754 77.9847 29.4288 78.7289 29.7372C79.4731 30.0457 80.3265 29.6925 80.6349 28.9483L82.7991 23.7216L84.4193 30.7406C82.6858 32.8553 81.2618 35.2059 80.1901 37.7215C78.6697 38.4263 76.9238 38.4629 75.3752 37.8224C73.8266 37.1819 72.6165 35.9228 72.0381 34.3499C73.0623 31.8126 73.7198 29.1423 73.9908 26.4195ZM70.6367 37.8688C71.6014 39.0484 72.8534 39.9599 74.2723 40.5157C75.4001 41.0008 76.6131 41.2566 77.8408 41.2682C78.1362 41.2671 78.4312 41.2491 78.7245 41.2142L74.071 52.4433C72.6776 49.3711 70.522 46.706 67.809 44.7011L70.6367 37.8688ZM50.6576 27.4535L57.9842 27.9012C58.0294 29.2633 58.0134 30.672 57.9682 32.1026C55.5274 32.277 53.0746 32.1585 50.662 31.7497C50.4782 31.7235 50.2989 31.703 50.1166 31.6783C50.2624 30.3045 50.4403 28.9133 50.6547 27.4535H50.6576ZM49.962 15.7096C53.8338 11.4382 55.8405 8.15256 56.3072 5.06383C59.0903 7.92732 60.9274 11.5761 61.5703 15.5171C61.8765 18.9479 60.8157 22.361 58.6186 25.0137C55.7379 24.8387 52.8889 24.6637 50.0714 24.4887C48.8607 23.357 48.1643 21.7802 48.1431 20.1231C48.1219 18.466 48.7778 16.872 49.9591 15.7096H49.962ZM49.8512 34.5847L50.2741 34.6401C52.1532 34.9307 54.0501 35.092 55.9513 35.1228C56.5551 35.1228 57.1909 35.0747 57.8282 35.0251C57.6955 36.902 57.4782 38.862 57.2026 40.8876C56.8424 40.8686 56.4895 40.8336 56.1278 40.8336C53.926 40.8376 51.7408 41.2138 49.6645 41.9463C49.5973 39.4909 49.6586 37.0337 49.8482 34.5847H49.8512ZM38.571 51.6383L34.3988 33.8657C34.2037 33.0947 33.4268 32.6221 32.6524 32.8035C31.878 32.9849 31.3918 33.7533 31.5594 34.5307L35.3088 50.5271C34.2779 50.1584 33.2129 49.8932 32.1296 49.7352L25.729 22.4208C26.6257 22.8291 27.5992 23.0409 28.5844 23.0421C28.6763 23.0421 28.774 23.0289 28.8673 23.0246L29.8984 27.4272C30.0095 27.9426 30.39 28.3578 30.8938 28.5133C31.3975 28.6688 31.9459 28.5404 32.3281 28.1774C32.7104 27.8144 32.867 27.2733 32.7377 26.7622L31.7052 22.3566C32.6947 21.9186 33.5674 21.2542 34.2529 20.4171L40.76 48.2404C39.915 49.2945 39.1814 50.4332 38.571 51.6383ZM29.6607 19.9927C27.7956 20.3544 25.8913 19.5919 24.7913 18.0429L24.9765 12.9067C25.4839 13.0015 25.9989 13.0503 26.5151 13.0525C27.0136 13.0546 27.5108 12.9993 27.9967 12.8877C28.9805 12.6294 29.9008 12.1717 30.7004 11.5432L33.1563 16.0756C32.8637 17.9562 31.4955 19.4904 29.6607 19.9956V19.9927ZM25.6663 2.95655C25.865 2.91054 26.07 3.00232 26.168 3.18113L29.2946 8.96339C28.7306 9.47365 28.0571 9.84781 27.3259 10.0571C26.5785 10.1943 25.8096 10.1579 25.0786 9.95068L25.3163 3.37947C25.3242 3.17569 25.4676 3.00245 25.6663 2.95655ZM15.1124 32.0837L16.2266 34.7757L10.8308 37.0099C10.1911 37.2785 9.82923 37.9606 9.9655 38.6409C10.1018 39.3212 10.6984 39.8113 11.3922 39.8128C11.5838 39.8124 11.7735 39.7747 11.9508 39.702L17.3466 37.4663L18.4622 40.1613L15.7628 41.2799C15.1195 41.5461 14.7541 42.23 14.8904 42.9128C15.0266 43.5956 15.6266 44.0868 16.3228 44.0857C16.5139 44.085 16.7031 44.0474 16.8799 43.9748L19.5793 42.8563L20.6949 45.5513L15.2947 47.7898C14.6514 48.0561 14.286 48.74 14.4222 49.4227C14.5585 50.1055 15.1584 50.5968 15.8547 50.5956C16.0458 50.5951 16.235 50.5575 16.4118 50.4848L21.8076 48.2507L22.9874 51.0988C18.2353 53.2678 14.7506 57.5092 13.5447 62.5918L2.97478 37.1061L15.1124 32.0837ZM75.8152 84.5834H11.6489C6.81643 84.5834 2.89895 80.6659 2.89895 75.8334C2.89895 71.0009 6.81643 67.0835 11.6489 67.0835C12.4939 67.0806 13.3347 67.2025 14.1441 67.4451C14.5814 67.5772 15.0553 67.4968 15.4245 67.2278C15.7937 66.9589 16.0155 66.5325 16.0239 66.0758C16.1276 60.8784 19.1321 56.1765 23.805 53.8988C28.4778 51.6211 34.0325 52.151 38.1904 55.271C38.5578 55.5445 39.0324 55.6295 39.4719 55.5005C39.9114 55.3715 40.2647 55.0435 40.426 54.6148C43.2752 47.0216 51.1496 42.5551 59.1289 44.0064C67.1081 45.4577 72.9056 52.4108 72.8985 60.521C72.9014 62.1888 72.6531 63.8475 72.1621 65.4414C72.0088 65.9373 72.1307 66.4773 72.482 66.8593C72.8334 67.2413 73.3614 67.4078 73.8683 67.2964C74.5077 67.1556 75.1605 67.0843 75.8152 67.0835C80.6476 67.0835 84.5651 71.0009 84.5651 75.8334C84.5651 80.6659 80.6476 84.5834 75.8152 84.5834Z" fill="#183344"/>
<path d="M56.3978 22.8963C56.8556 22.8981 57.2876 22.6848 57.5645 22.3203C59.3851 19.8561 60.0887 16.7412 59.5041 13.7337C59.3797 13.2194 58.9865 12.8129 58.4767 12.6714C57.967 12.5298 57.4205 12.6755 57.0488 13.052C56.6771 13.4285 56.5385 13.9768 56.6866 14.4847C57.0357 16.6218 56.5147 18.8097 55.2399 20.5601C54.9085 21.002 54.8552 21.5932 55.1022 22.0873C55.3492 22.5813 55.8542 22.8934 56.4066 22.8934L56.3978 22.8963Z" fill="#183344"/>
<path d="M54.48 67.0834C53.3956 67.0867 52.3261 67.336 51.3519 67.8125C48.7285 64.2228 43.8301 63.1712 39.9644 65.3679C36.0988 67.5645 34.4951 72.311 36.2364 76.4021C36.4655 76.9398 36.9936 77.2887 37.5781 77.2887C37.7746 77.2892 37.9691 77.2495 38.1497 77.1721C38.5056 77.0205 38.7866 76.7337 38.931 76.3749C39.0754 76.0161 39.0713 75.6146 38.9197 75.2587C38.6022 74.5187 38.4385 73.7219 38.4385 72.9167C38.4385 69.695 41.0501 67.0834 44.2718 67.0834C46.5344 67.0721 48.5951 68.3832 49.5436 70.4375C49.5752 70.485 49.6092 70.5308 49.6457 70.5746C49.6687 70.6246 49.6945 70.6733 49.723 70.7204C49.7492 70.7525 49.7871 70.7671 49.8163 70.7977C49.8847 70.8688 49.9605 70.9323 50.0424 70.9873C50.1152 71.0434 50.1933 71.0922 50.2757 71.1331C50.3604 71.1686 50.4483 71.196 50.5382 71.2148C50.6279 71.2383 50.7197 71.2525 50.8123 71.2571C51.0018 71.2556 51.1898 71.2241 51.3694 71.1638C51.4083 71.1566 51.4468 71.1474 51.4846 71.1361C51.532 71.1055 51.5773 71.0718 51.6203 71.0354C51.6728 71.0121 51.7239 70.9858 51.7734 70.9567C52.5394 70.3372 53.4949 69.9995 54.48 70C56.1852 70.0028 57.7334 70.996 58.4467 72.5448C58.7809 73.2777 59.646 73.6009 60.379 73.2667C61.1119 72.9324 61.4351 72.0673 61.1008 71.3344C59.9133 68.7461 57.3277 67.086 54.48 67.0834Z" fill="#183344"/>
<path d="M25.7714 56.9497C25.5512 57.0211 20.3989 58.8032 20.3989 64.1669C20.3989 64.9723 21.0518 65.6253 21.8573 65.6253C22.6627 65.6253 23.3156 64.9723 23.3156 64.1669C23.4346 62.1326 24.7731 60.3727 26.7018 59.7147C27.4669 59.4577 27.8789 58.6292 27.622 57.8641C27.3651 57.0989 26.5365 56.6869 25.7714 56.9438V56.9497Z" fill="#183344"/>
<path d="M46.2942 55.3732C46.41 55.4026 46.5291 55.4173 46.6486 55.4169C47.3169 55.4163 47.8993 54.9613 48.0617 54.313C48.7329 51.5898 51.1436 49.6527 53.9475 49.5836C54.7529 49.5816 55.4042 48.9271 55.4022 48.1217C55.4001 47.3163 54.7456 46.665 53.9402 46.667C49.7952 46.722 46.2132 49.5762 45.234 53.6042C45.0383 54.3855 45.513 55.1775 46.2942 55.3732Z" fill="#183344"/>
</svg>
