<svg width="512" height="512" viewBox="0 0 512 512" fill="none" xmlns="http://www.w3.org/2000/svg">
<path d="M256 32C132.3 32 32 132.3 32 256C32 379.7 132.3 480 256 480C379.7 480 480 379.7 480 256C480 132.3 379.7 32 256 32ZM348.25 208.85L259.25 331.85C258.882 332.361 258.397 332.777 257.837 333.064C257.276 333.352 256.655 333.501 256.025 333.501C255.395 333.501 254.774 333.352 254.213 333.064C253.653 332.777 253.168 332.361 252.8 331.85L163.8 208.85C161.9 206.2 163.8 202.5 167.05 202.5H190.5C195.6 202.5 200.45 204.95 203.45 209.1L256 281.8L308.6 209.1C311.6 204.95 316.4 202.5 321.55 202.5H345C348.25 202.5 350.15 206.2 348.25 208.85V208.85Z" fill="white"/>
</svg>
