<svg width="512" height="512" viewBox="0 0 512 512" fill="none" xmlns="http://www.w3.org/2000/svg">
<g clip-path="url(#clip0)">
<path d="M348.885 494.293C349.312 494.165 349.717 493.995 350.144 493.845C610.731 390.315 538.645 0 256 0C114.155 0 0 115.627 0 256C0 433.643 179.925 560.405 348.885 494.293ZM112.661 427.925C130.837 397.376 189.653 311.189 290.048 281.451C311.04 334.976 325.76 397.419 327.211 468.224C251.136 493.803 170.901 476.587 112.661 427.925V427.925ZM358.677 454.869C355.883 386.837 341.995 326.507 322.197 274.24C366.613 267.307 418.027 271.936 476.331 295.296C463.936 364.864 419.456 423.339 358.677 454.869V454.869ZM479.68 262.208C415.467 238.08 358.869 235.072 309.888 244.416C302.315 227.349 294.357 210.944 285.931 195.84C361.088 165.824 405.504 129.237 425.387 109.867C460.48 150.485 481.323 203.072 479.68 262.208V262.208ZM402.667 87.0827C384.576 104.299 341.973 139.072 269.12 167.509C233.408 111.019 195.221 71.168 171.029 48.8533C248.427 16.9813 337.685 30.592 402.667 87.0827V87.0827ZM140.437 64.4907C158.699 80.5547 198.784 119.125 237.461 178.773C184.341 195.883 117.739 208.448 36.736 210.219C49.6213 148.48 88.1067 96.1707 140.437 64.4907V64.4907ZM32.6827 242.347C123.349 240.875 196.736 226.56 254.741 207.189C262.763 221.248 270.379 236.565 277.696 252.48C176.683 284.651 113.557 367.701 89.3867 405.205C50.3893 361.685 28.8853 304.896 32.6827 242.347V242.347Z" fill="white"/>
</g>
<defs>
<clipPath id="clip0">
<rect width="512" height="512" fill="white"/>
</clipPath>
</defs>
</svg>
