<svg width="97" height="88" viewBox="0 0 97 88" fill="none" xmlns="http://www.w3.org/2000/svg">
<path d="M34.4474 38.4227C34.011 37.6899 33.0633 37.4497 32.3307 37.8864L14.343 48.6003C13.8755 48.8786 13.5889 49.3826 13.5889 49.9268C13.5889 50.4709 13.8755 50.9749 14.3428 51.2533L32.3305 61.9672C32.5782 62.1148 32.8504 62.185 33.1193 62.185C33.6455 62.185 34.1586 61.9157 34.4472 61.4309C34.8837 60.6981 34.6434 59.7505 33.9109 59.3142L18.1504 49.9268L33.9109 40.5394C34.6436 40.1031 34.8839 39.1554 34.4474 38.4227Z" fill="#183344"/>
<path d="M62.3175 61.4308C62.6064 61.9158 63.1192 62.1849 63.6455 62.1849C63.9143 62.1849 64.1865 62.1147 64.4342 61.9671L82.4219 51.2532C82.8895 50.9746 83.1759 50.4708 83.1759 49.9267C83.1759 49.3825 82.8893 48.8785 82.4219 48.6002L64.4342 37.8863C63.7017 37.4498 62.7536 37.6899 62.3175 38.4226C61.881 39.1553 62.1213 40.103 62.8538 40.5393L78.6143 49.9267L62.8538 59.3141C62.1211 59.7504 61.8808 60.698 62.3175 61.4308Z" fill="#183344"/>
<path d="M54.2957 38.352L39.9059 59.7798C39.4306 60.4876 39.6189 61.447 40.327 61.9226C40.5913 62.1001 40.8905 62.1849 41.1865 62.1849C41.6837 62.1849 42.1719 61.945 42.4698 61.5014L56.8595 40.0735C57.3349 39.3657 57.1465 38.4063 56.4385 37.9307C55.7301 37.4553 54.7709 37.6441 54.2957 38.352Z" fill="#183344"/>
<path d="M95.2206 0H1.54412C0.691147 0 0 0.691353 0 1.54412V85.9559C0 86.8086 0.691147 87.5 1.54412 87.5H95.2206C96.0736 87.5 96.7647 86.8086 96.7647 85.9559V69.4853C96.7647 68.6325 96.0736 67.9412 95.2206 67.9412C94.3676 67.9412 93.6765 68.6325 93.6765 69.4853V84.4118H3.08824V15.4412H93.6765V63.3088C93.6765 64.1616 94.3676 64.8529 95.2206 64.8529C96.0736 64.8529 96.7647 64.1616 96.7647 63.3088V1.54412C96.7647 0.691353 96.0736 0 95.2206 0ZM3.08824 3.08824H60.2206V12.3529H3.08824V3.08824ZM63.3088 12.3529V3.08824H93.6765V12.3529H63.3088Z" fill="#183344"/>
<path d="M78.5455 6.07422C77.6373 6.07422 76.8984 6.81313 76.8984 7.72128C76.8984 8.62942 77.6373 9.36834 78.5455 9.36834C79.4536 9.36834 80.1926 8.62942 80.1926 7.72128C80.1926 6.81313 79.4536 6.07422 78.5455 6.07422Z" fill="#183344"/>
<path d="M70.1031 6.07422C69.195 6.07422 68.4561 6.81313 68.4561 7.72128C68.4561 8.62942 69.195 9.36834 70.1031 9.36834C71.0113 9.36834 71.7502 8.62942 71.7502 7.72128C71.7502 6.81313 71.0113 6.07422 70.1031 6.07422Z" fill="#183344"/>
<path d="M86.9849 6.07422C86.0768 6.07422 85.3379 6.81313 85.3379 7.72128C85.3379 8.62942 86.0768 9.36834 86.9849 9.36834C87.8931 9.36834 88.632 8.62942 88.632 7.72128C88.632 6.81313 87.8931 6.07422 86.9849 6.07422Z" fill="#183344"/>
</svg>
