<svg width="512" height="512" viewBox="0 0 512 512" fill="none" xmlns="http://www.w3.org/2000/svg">
<path d="M384 284.928V379.571H329.139V291.251C329.139 269.081 321.203 253.952 301.338 253.952C286.182 253.952 277.146 264.141 273.178 274.022C271.744 277.555 271.36 282.47 271.36 287.385V379.571H216.474C216.474 379.571 217.216 230.016 216.474 214.528H271.36V237.901L271.002 238.438H271.36V237.926C278.656 226.662 291.661 210.637 320.819 210.637C356.915 210.637 384 234.24 384 284.928V284.928ZM159.053 134.937C140.288 134.937 128 147.277 128 163.456C128 179.328 139.93 192 158.336 192H158.694C177.843 192 189.747 179.302 189.747 163.456C189.389 147.277 177.843 134.937 159.053 134.937ZM131.251 379.571H186.138V214.528H131.251V379.571V379.571Z" fill="white"/>
<path d="M256 460.8C310.316 460.8 362.408 439.223 400.815 400.815C439.223 362.408 460.8 310.316 460.8 256C460.8 201.684 439.223 149.592 400.815 111.185C362.408 72.7771 310.316 51.2 256 51.2C201.684 51.2 149.592 72.7771 111.185 111.185C72.7771 149.592 51.2 201.684 51.2 256C51.2 310.316 72.7771 362.408 111.185 400.815C149.592 439.223 201.684 460.8 256 460.8V460.8ZM256 512C114.611 512 0 397.389 0 256C0 114.611 114.611 0 256 0C397.389 0 512 114.611 512 256C512 397.389 397.389 512 256 512Z" fill="white"/>
</svg>
